<?xml version="1.0" encoding="iso-8859-1"?>
<!-- Generator: Adobe Illustrator 18.0.0, SVG Export Plug-In . SVG Version: 6.00 Build 0)  -->
<!DOCTYPE svg PUBLIC "-//W3C//DTD SVG 1.1//EN" "http://www.w3.org/Graphics/SVG/1.1/DTD/svg11.dtd">
<svg version="1.1" id="Capa_1" xmlns="http://www.w3.org/2000/svg" xmlns:xlink="http://www.w3.org/1999/xlink" x="0px" y="0px"
	 viewBox="0 0 491.283 491.283" style="enable-background:new 0 0 491.283 491.283;" xml:space="preserve">
<g>
	<path fill="#ff4500" d="M391.768,141.173c3.363-0.336,6.768-0.514,10.22-0.514c15.479,0,30.131,3.516,43.324,9.65V77.038
		c0-18.75-15.204-33.951-33.954-33.951H33.954C15.203,43.087,0,58.288,0,77.038v228.674c0,18.752,15.203,33.955,33.954,33.955
		h246.27v-41.828c0-16.018,7.034-30.58,18.444-40.56V243.96c0-7.906,0.969-15.58,2.662-22.98
		C311.086,178.29,347.278,145.567,391.768,141.173z M54.433,307.509c-3.018,2.482-6.673,3.682-10.299,3.682
		c-4.692,0-9.345-2.018-12.561-5.924c-5.695-6.939-4.683-17.176,2.242-22.871l93.129-76.467l24.687,21.781L54.433,307.509z
		 M255.884,228.597c-9.47,8.354-21.349,12.527-33.219,12.527c-11.869,0-23.738-4.174-33.207-12.527L50.644,106.114
		c-6.718-5.941-7.37-16.203-1.433-22.932c5.952-6.719,16.211-7.369,22.924-1.434l138.813,122.49c6.673,5.895,16.765,5.895,23.442,0
		l138.794-122.49c6.718-5.936,16.986-5.285,22.919,1.434c5.938,6.729,5.295,16.99-1.433,22.932L255.884,228.597z"/>
	<path fill="#ff4500" d="M472.789,276.503V243.96c0-39.064-31.751-70.822-70.802-70.822c-39.066,0-70.837,31.758-70.837,70.822v32.543
		c-10.373,1.77-18.449,10.428-18.449,21.336v128.297c0,12.199,9.87,22.061,22.051,22.061h134.451c12.181,0,22.08-9.861,22.08-22.061
		V297.839C491.283,286.931,483.177,278.272,472.789,276.503z M419.414,376.356c0,9.637-7.81,17.453-17.446,17.453
		c-9.632,0-17.441-7.816-17.441-17.453v-28.73c0-9.635,7.81-17.443,17.441-17.443c9.637,0,17.446,7.809,17.446,17.443V376.356z
		 M435.867,275.782h-67.765V243.96c0-18.68,15.214-33.883,33.885-33.883c18.651,0,33.88,15.203,33.88,33.883V275.782z"/>
</g>
<g>
</g>
<g>
</g>
<g>
</g>
<g>
</g>
<g>
</g>
<g>
</g>
<g>
</g>
<g>
</g>
<g>
</g>
<g>
</g>
<g>
</g>
<g>
</g>
<g>
</g>
<g>
</g>
<g>
</g>
</svg>
